#Comment line ignore any data following # character 
#Hierarchical Translation and Rotation (.htr) file 
[Header]	
#Header keywords are followed by a single value 
FileType HTR		#Single word string
DataType HTRS		#Translation followed by rotation and scale data
FileVersion 1		#integer
NumSegments 84		#integer
NumFrames 2		#integer
DataFrameRate 30		#integer, data frame rate in this file
EulerRotationOrder ZYX
CalibrationUnits mm
RotationUnits Degrees
GlobalAxisofGravity Y
BoneLengthAxis Y
ScaleFactor 1.00
[SegmentNames&Hierarchy]
#CHILD	PARENT
MASTER GLOBAL
root MASTER
chest root
L_mid_tent01 root
R_mid_tent01 root
spine01 root
Bip01_Neck chest
L_humerus chest
R_humerus chest
weapon_bone chest
Bip01_Head Bip01_Neck
eye_left_bone Bip01_Head
eye_right_bone Bip01_Head
L_forearm L_humerus
L_front_hand L_forearm
L_weapon_bone L_forearm
L_front_hand01_01 L_front_hand
L_front_hand02_01 L_front_hand
L_front_hand03_01 L_front_hand
L_front_hand01_02 L_front_hand01_01
L_front_hand02_02 L_front_hand02_01
L_front_hand03_02 L_front_hand03_01
R_forearm R_humerus
R_front_hand R_forearm
R_weapon_bone R_forearm
R_front_hand01_01 R_front_hand
R_front_hand02_01 R_front_hand
R_front_hand03_01 R_front_hand
R_front_hand01_02 R_front_hand01_01
R_front_hand02_02 R_front_hand02_01
R_front_hand03_02 R_front_hand03_01
null_rope01_connect L_mid_tent01
Rope1_Seg01 null_rope01_connect
Rope1_Seg02 Rope1_Seg01
Rope1_Seg03 Rope1_Seg02
Rope1_Seg04 Rope1_Seg03
Rope1_Seg05 Rope1_Seg04
Rope1_Seg06 Rope1_Seg05
Rope1_Seg07 Rope1_Seg06
Rope1_Seg09 Rope1_Seg07
L_mid_hand01 Rope1_Seg09
L_mid_hand02 Rope1_Seg09
L_mid_hand03 Rope1_Seg09
null_rope02_connect R_mid_tent01
Rope2_Seg01 null_rope02_connect
Rope2_Seg02 Rope2_Seg01
Rope2_Seg03 Rope2_Seg02
Rope2_Seg04 Rope2_Seg03
Rope2_Seg05 Rope2_Seg04
Rope2_Seg06 Rope2_Seg05
Rope2_Seg07 Rope2_Seg06
Rope2_Seg09 Rope2_Seg07
R_mid_hand01 Rope2_Seg09
R_mid_hand02 Rope2_Seg09
R_mid_hand03 Rope2_Seg09
spine02 spine01
spine03 spine02
pelvis spine03
null_rope03_connect pelvis
null_rope04_connect pelvis
Rope3_Seg01 null_rope03_connect
Rope3_Seg02 Rope3_Seg01
Rope3_Seg03 Rope3_Seg02
Rope3_Seg04 Rope3_Seg03
Rope3_Seg05 Rope3_Seg04
Rope3_Seg06 Rope3_Seg05
Rope3_Seg07 Rope3_Seg06
Rope3_Seg08 Rope3_Seg07
Rope3_Seg09 Rope3_Seg08
R_rear_hand01 Rope3_Seg09
R_rear_hand02 Rope3_Seg09
R_rear_hand03 Rope3_Seg09
Rope4_Seg01 null_rope04_connect
Rope4_Seg02 Rope4_Seg01
Rope4_Seg03 Rope4_Seg02
Rope4_Seg04 Rope4_Seg03
Rope4_Seg05 Rope4_Seg04
Rope4_Seg06 Rope4_Seg05
Rope4_Seg07 Rope4_Seg06
Rope4_Seg08 Rope4_Seg07
Rope4_Seg09 Rope4_Seg08
L_rear_hand01 Rope4_Seg09
L_rear_hand02 Rope4_Seg09
L_rear_hand03 Rope4_Seg09
[BasePosition]
#SegmentName Tx, Ty, Tz, Rx, Ry, Rz, BoneLength
MASTER 0.000000 0.000000 0.000000 -90.000000 0.000000 0.000000 10.000000 
root 0.000000 0.000000 0.000000 0.000000 0.000000 0.000000 10.000000 
chest 0.000000 0.000000 0.000000 0.000000 0.000000 0.000000 10.000000 
L_mid_tent01 0.000000 0.000000 0.000000 0.000000 0.000000 0.000000 10.000000 
R_mid_tent01 0.000000 0.000000 0.000000 0.000000 0.000000 0.000000 10.000000 
spine01 0.000000 0.000000 0.000000 0.000000 0.000000 0.000000 10.000000 
Bip01_Neck 0.000000 0.000000 0.000000 0.000000 0.000000 0.000000 10.000000 
L_humerus 0.000000 0.000000 0.000000 0.000000 0.000000 0.000000 10.000000 
R_humerus 0.000000 0.000000 0.000000 0.000000 0.000000 0.000000 10.000000 
weapon_bone 0.000000 0.000000 0.000000 0.000000 0.000000 0.000000 10.000000 
Bip01_Head 0.000000 0.000000 0.000000 0.000000 0.000000 0.000000 10.000000 
eye_left_bone 0.000000 0.000000 0.000000 0.000000 0.000000 0.000000 10.000000 
eye_right_bone 0.000000 0.000000 0.000000 0.000000 0.000000 0.000000 10.000000 
L_forearm 0.000000 0.000000 0.000000 0.000000 0.000000 0.000000 10.000000 
L_front_hand 0.000000 0.000000 0.000000 0.000000 0.000000 0.000000 10.000000 
L_weapon_bone 0.000000 0.000000 0.000000 0.000000 0.000000 0.000000 10.000000 
L_front_hand01_01 0.000000 0.000000 0.000000 0.000000 0.000000 0.000000 10.000000 
L_front_hand02_01 0.000000 0.000000 0.000000 0.000000 0.000000 0.000000 10.000000 
L_front_hand03_01 0.000000 0.000000 0.000000 0.000000 0.000000 0.000000 10.000000 
L_front_hand01_02 0.000000 0.000000 0.000000 0.000000 0.000000 0.000000 10.000000 
L_front_hand02_02 0.000000 0.000000 0.000000 0.000000 0.000000 0.000000 10.000000 
L_front_hand03_02 0.000000 0.000000 0.000000 0.000000 0.000000 0.000000 10.000000 
R_forearm 0.000000 0.000000 0.000000 0.000000 0.000000 0.000000 10.000000 
R_front_hand 0.000000 0.000000 0.000000 0.000000 0.000000 0.000000 10.000000 
R_weapon_bone 0.000000 0.000000 0.000000 0.000000 0.000000 0.000000 10.000000 
R_front_hand01_01 0.000000 0.000000 0.000000 0.000000 0.000000 0.000000 10.000000 
R_front_hand02_01 0.000000 0.000000 0.000000 0.000000 0.000000 0.000000 10.000000 
R_front_hand03_01 0.000000 0.000000 0.000000 0.000000 0.000000 0.000000 10.000000 
R_front_hand01_02 0.000000 0.000000 0.000000 0.000000 0.000000 0.000000 10.000000 
R_front_hand02_02 0.000000 0.000000 0.000000 0.000000 0.000000 0.000000 10.000000 
R_front_hand03_02 0.000000 0.000000 0.000000 0.000000 0.000000 0.000000 10.000000 
null_rope01_connect 0.000000 0.000000 0.000000 0.000000 0.000000 0.000000 10.000000 
Rope1_Seg01 0.000000 0.000000 0.000000 0.000000 0.000000 0.000000 10.000000 
Rope1_Seg02 0.000000 0.000000 0.000000 0.000000 0.000000 0.000000 10.000000 
Rope1_Seg03 0.000000 0.000000 0.000000 0.000000 0.000000 0.000000 10.000000 
Rope1_Seg04 0.000000 0.000000 0.000000 0.000000 0.000000 0.000000 10.000000 
Rope1_Seg05 0.000000 0.000000 0.000000 0.000000 0.000000 0.000000 10.000000 
Rope1_Seg06 0.000000 0.000000 0.000000 0.000000 0.000000 0.000000 10.000000 
Rope1_Seg07 0.000000 0.000000 0.000000 0.000000 0.000000 0.000000 10.000000 
Rope1_Seg09 0.000000 0.000000 0.000000 0.000000 0.000000 0.000000 10.000000 
L_mid_hand01 0.000000 0.000000 0.000000 0.000000 0.000000 0.000000 10.000000 
L_mid_hand02 0.000000 0.000000 0.000000 0.000000 0.000000 0.000000 10.000000 
L_mid_hand03 0.000000 0.000000 0.000000 0.000000 0.000000 0.000000 10.000000 
null_rope02_connect 0.000000 0.000000 0.000000 0.000000 0.000000 0.000000 10.000000 
Rope2_Seg01 0.000000 0.000000 0.000000 0.000000 0.000000 0.000000 10.000000 
Rope2_Seg02 0.000000 0.000000 0.000000 0.000000 0.000000 0.000000 10.000000 
Rope2_Seg03 0.000000 0.000000 0.000000 0.000000 0.000000 0.000000 10.000000 
Rope2_Seg04 0.000000 0.000000 0.000000 0.000000 0.000000 0.000000 10.000000 
Rope2_Seg05 0.000000 0.000000 0.000000 0.000000 0.000000 0.000000 10.000000 
Rope2_Seg06 0.000000 0.000000 0.000000 0.000000 0.000000 0.000000 10.000000 
Rope2_Seg07 0.000000 0.000000 0.000000 0.000000 0.000000 0.000000 10.000000 
Rope2_Seg09 0.000000 0.000000 0.000000 0.000000 0.000000 0.000000 10.000000 
R_mid_hand01 0.000000 0.000000 0.000000 0.000000 0.000000 0.000000 10.000000 
R_mid_hand02 0.000000 0.000000 0.000000 0.000000 0.000000 0.000000 10.000000 
R_mid_hand03 0.000000 0.000000 0.000000 0.000000 0.000000 0.000000 10.000000 
spine02 0.000000 0.000000 0.000000 0.000000 0.000000 0.000000 10.000000 
spine03 0.000000 0.000000 0.000000 0.000000 0.000000 0.000000 10.000000 
pelvis 0.000000 0.000000 0.000000 0.000000 0.000000 0.000000 10.000000 
null_rope03_connect 0.000000 0.000000 0.000000 0.000000 0.000000 0.000000 10.000000 
null_rope04_connect 0.000000 0.000000 0.000000 0.000000 0.000000 0.000000 10.000000 
Rope3_Seg01 0.000000 0.000000 0.000000 0.000000 0.000000 0.000000 10.000000 
Rope3_Seg02 0.000000 0.000000 0.000000 0.000000 0.000000 0.000000 10.000000 
Rope3_Seg03 0.000000 0.000000 0.000000 0.000000 0.000000 0.000000 10.000000 
Rope3_Seg04 0.000000 0.000000 0.000000 0.000000 0.000000 0.000000 10.000000 
Rope3_Seg05 0.000000 0.000000 0.000000 0.000000 0.000000 0.000000 10.000000 
Rope3_Seg06 0.000000 0.000000 0.000000 0.000000 0.000000 0.000000 10.000000 
Rope3_Seg07 0.000000 0.000000 0.000000 0.000000 0.000000 0.000000 10.000000 
Rope3_Seg08 0.000000 0.000000 0.000000 0.000000 0.000000 0.000000 10.000000 
Rope3_Seg09 0.000000 0.000000 0.000000 0.000000 0.000000 0.000000 10.000000 
R_rear_hand01 0.000000 0.000000 0.000000 0.000000 0.000000 0.000000 10.000000 
R_rear_hand02 0.000000 0.000000 0.000000 0.000000 0.000000 0.000000 10.000000 
R_rear_hand03 0.000000 0.000000 0.000000 0.000000 0.000000 0.000000 10.000000 
Rope4_Seg01 0.000000 0.000000 0.000000 0.000000 0.000000 0.000000 10.000000 
Rope4_Seg02 0.000000 0.000000 0.000000 0.000000 0.000000 0.000000 10.000000 
Rope4_Seg03 0.000000 0.000000 0.000000 0.000000 0.000000 0.000000 10.000000 
Rope4_Seg04 0.000000 0.000000 0.000000 0.000000 0.000000 0.000000 10.000000 
Rope4_Seg05 0.000000 0.000000 0.000000 0.000000 0.000000 0.000000 10.000000 
Rope4_Seg06 0.000000 0.000000 0.000000 0.000000 0.000000 0.000000 10.000000 
Rope4_Seg07 0.000000 0.000000 0.000000 0.000000 0.000000 0.000000 10.000000 
Rope4_Seg08 0.000000 0.000000 0.000000 0.000000 0.000000 0.000000 10.000000 
Rope4_Seg09 0.000000 0.000000 0.000000 0.000000 0.000000 0.000000 10.000000 
L_rear_hand01 0.000000 0.000000 0.000000 0.000000 0.000000 0.000000 10.000000 
L_rear_hand02 0.000000 0.000000 0.000000 0.000000 0.000000 0.000000 10.000000 
L_rear_hand03 0.000000 0.000000 0.000000 0.000000 0.000000 0.000000 10.000000 
#Beginning of Data. Separated by tabs
#Fr	Tx	Ty	Tz	Rx	Ry	Rz	SF
[MASTER]
47 0.000000 0.000000 0.000000 0.001660 0.001660 0.001660 0.000000
48 0.000000 0.000000 0.000000 0.001660 0.001660 0.001660 0.000000
[root]
47 -29.693560 -53.514111 1604.690674 -108.001343 17.349781 -88.480690 1605.857300
48 -33.113361 -53.826126 1605.751831 -108.062218 17.905325 -88.671326 1606.994995
[chest]
47 -86.836594 -33.005978 -30.127230 -1.652217 -9.205945 -179.610611 97.660828
48 -86.836594 -33.005978 -30.127230 -2.145464 -9.217001 -178.910614 97.660828
[L_mid_tent01]
47 27.299479 22.177580 -249.918289 -4.808822 8.139744 74.084702 252.381180
48 27.299477 22.177580 -249.918289 -4.817647 6.746097 73.453438 252.381180
[R_mid_tent01]
47 23.228794 24.509907 226.238495 -176.073868 -14.682566 65.719658 228.744751
48 23.228794 24.509907 226.238495 -176.081116 -14.319592 65.745018 228.744751
[spine01]
47 -0.361383 -0.195265 0.000000 -0.000001 -0.000007 22.052340 0.410763
48 -0.361383 -0.195265 0.000000 -0.000001 -0.000007 22.052340 0.410763
[Bip01_Neck]
47 165.484543 71.581718 0.000119 175.896118 1.177290 24.871183 180.302734
48 165.484543 71.581718 0.000119 175.896118 1.177290 24.871183 180.302734
[L_humerus]
47 -13.983130 -135.272980 -120.471481 -168.517593 36.033752 -113.483025 181.680161
48 -13.983130 -135.272980 -120.471481 -168.517593 36.033752 -113.483025 181.680161
[R_humerus]
47 -13.983309 -135.273102 125.287651 -179.588654 -28.895136 -122.030510 184.909012
48 -13.983309 -135.273102 125.287651 -179.588654 -28.895136 -122.030510 184.909012
[weapon_bone]
47 235.964890 -300.705902 0.000000 0.000000 -89.951546 -128.212341 382.234833
48 235.964890 -300.705902 0.000000 0.000000 -89.951546 -128.212341 382.234833
[Bip01_Head]
47 189.519836 179.130295 22.124920 -23.626308 5.787232 14.654977 261.715393
48 189.519836 179.130295 22.124922 -23.626308 5.787232 14.654979 261.715393
[eye_left_bone]
47 -24.626970 125.451866 -64.772606 0.000000 -90.000000 -99.840431 143.318359
48 -24.626970 125.451866 -64.772606 0.000000 -90.000000 -99.840431 143.318359
[eye_right_bone]
47 -24.626970 125.451866 64.327362 0.000000 -89.965736 80.156380 143.117676
48 -24.626970 125.451866 64.327362 0.000000 -89.965736 80.156380 143.117676
[L_forearm]
47 322.776093 0.000000 -0.000119 0.000017 0.002347 -89.149834 322.776093
48 322.776093 0.000000 -0.000119 0.000017 0.002347 -89.149834 322.776093
[L_front_hand]
47 241.149185 -0.042021 -3.300071 53.752888 -2.244279 -0.021032 241.171753
48 241.149185 -0.042021 -3.300071 56.329845 -2.242442 -0.020579 241.171753
[L_weapon_bone]
47 156.183838 0.000000 0.000000 0.000014 0.000007 0.000001 156.183838
48 156.183838 0.000000 0.000000 0.000014 0.000007 0.000001 156.183838
[L_front_hand01_01]
47 86.095154 20.947098 -0.655860 -0.366594 -0.477154 75.385574 88.609184
48 86.095154 20.947098 -0.655860 -0.366594 -0.477154 75.385574 88.609184
[L_front_hand02_01]
47 86.935165 -11.437475 24.513514 154.399796 -59.883835 -61.369587 91.046425
48 86.935165 -11.437475 24.513514 154.399796 -59.883835 -61.369587 91.046425
[L_front_hand03_01]
47 86.637497 -14.123976 -20.424902 -153.913849 58.118122 -62.702866 90.126129
48 86.637497 -14.123976 -20.424902 -153.913849 58.118122 -62.702866 90.126129
[L_front_hand01_02]
47 71.020905 -0.000179 0.000030 0.000334 -0.002323 -106.379684 71.020905
48 71.020905 -0.000179 0.000030 0.000334 -0.002323 -106.379684 71.020905
[L_front_hand02_02]
47 71.020927 -0.000119 0.000060 0.000334 -0.002323 -106.379684 71.020927
48 71.020927 -0.000119 0.000060 0.000334 -0.002323 -106.379684 71.020927
[L_front_hand03_02]
47 71.020905 -0.000060 0.000060 0.000334 -0.002323 -106.379684 71.020905
48 71.020905 -0.000060 0.000060 0.000334 -0.002323 -106.379684 71.020905
[R_forearm]
47 322.776428 -0.000060 0.000030 0.213197 0.007525 -93.425270 322.776428
48 322.776428 -0.000060 0.000030 0.213197 0.007525 -93.425262 322.776428
[R_front_hand]
47 238.847015 -0.006795 2.210259 -0.270529 1.703932 2.322530 238.857239
48 238.847015 -0.006795 2.210259 -0.270529 1.703932 2.322530 238.857239
[R_weapon_bone]
47 155.664093 0.002503 -0.000030 0.003487 0.001180 -90.988930 155.664078
48 155.664093 0.002503 -0.000030 0.003487 0.001180 -90.988930 155.664078
[R_front_hand01_01]
47 87.624611 14.231146 22.918642 -154.633499 -59.950619 61.746044 91.683487
48 87.624611 14.231146 22.918642 -154.633499 -59.950619 61.746044 91.683487
[R_front_hand02_01]
47 89.356956 14.367283 -19.491137 154.602661 58.302849 63.744389 92.579636
48 89.356956 14.367283 -19.491137 154.602661 58.302849 63.744389 92.579636
[R_front_hand03_01]
47 87.286232 -22.307278 -0.143439 0.162155 -0.423168 -75.767921 90.091743
48 87.286232 -22.307278 -0.143439 0.162155 -0.423168 -75.767921 90.091743
[R_front_hand01_02]
47 71.020905 0.000060 0.000119 0.002323 -0.000334 106.381714 71.020905
48 71.020905 0.000060 0.000119 0.002323 -0.000334 106.381714 71.020905
[R_front_hand02_02]
47 71.020844 -0.000030 -0.000119 0.002323 -0.000334 106.381714 71.020836
48 71.020844 -0.000030 -0.000119 0.002323 -0.000334 106.381714 71.020836
[R_front_hand03_02]
47 71.020905 0.000000 0.000030 0.002323 -0.000334 106.381714 71.020905
48 71.020905 0.000000 0.000030 0.002323 -0.000334 106.381714 71.020905
[null_rope01_connect]
47 328.732483 0.000000 -0.000238 154.729309 -62.138706 -156.547760 328.732483
48 328.732483 0.000000 -0.000238 153.495178 -63.407837 -155.290802 328.732483
[Rope1_Seg01]
47 0.000000 0.000000 0.000000 -112.209747 68.544914 -105.011620 0.000000
48 0.000000 0.000000 0.000000 -121.149536 67.403679 -112.121201 0.000000
[Rope1_Seg02]
47 139.999863 -0.000179 0.000000 2.067696 -0.665281 -2.246339 139.999863
48 139.999863 -0.000179 0.000000 2.908077 -1.163525 -2.640398 139.999863
[Rope1_Seg03]
47 139.999924 0.000060 -0.000060 3.088209 -1.440607 -2.674621 139.999924
48 139.999924 0.000060 -0.000060 4.320328 -2.287570 -3.104596 139.999924
[Rope1_Seg04]
47 139.999924 -0.000060 -0.000119 5.522650 -3.279492 -3.778130 139.999924
48 139.999924 -0.000060 -0.000119 7.124487 -4.356339 -4.331786 139.999924
[Rope1_Seg05]
47 139.999832 0.000119 -0.000060 0.506990 4.855538 -6.316302 139.999832
48 139.999832 0.000119 -0.000060 0.463860 4.827614 -6.199188 139.999832
[Rope1_Seg06]
47 139.999954 0.000119 -0.000060 -0.349947 2.778486 -2.866581 139.999954
48 139.999954 0.000119 -0.000060 -0.377105 2.738389 -2.802756 139.999954
[Rope1_Seg07]
47 139.999985 0.000060 0.000000 0.317331 1.153516 -1.563061 139.999985
48 139.999985 0.000060 0.000000 0.387292 1.104988 -1.557571 139.999985
[Rope1_Seg09]
47 121.602913 0.000119 -0.000089 -89.793175 -1.359789 0.847147 121.602913
48 121.602913 0.000119 -0.000089 -89.793175 -1.359789 0.847147 121.602913
[L_mid_hand01]
47 103.859421 1.038730 8.195221 106.855484 -31.239275 -9.461397 104.187431
48 103.859421 1.038730 8.195221 106.855484 -31.239275 -9.461397 104.187431
[L_mid_hand02]
47 105.572853 -4.139662 -10.864139 -142.331345 25.752670 -28.774628 106.211075
48 105.572853 -4.139662 -10.864139 -142.331345 25.752670 -28.774628 106.211075
[L_mid_hand03]
47 104.641464 17.579376 -3.913581 -16.122810 9.734291 34.223598 106.179977
48 104.641464 17.579376 -3.913581 -16.122810 9.734291 34.223598 106.179977
[null_rope02_connect]
47 328.732849 0.000179 -0.000119 -65.449806 84.841057 108.460571 328.732849
48 328.732849 0.000179 -0.000119 -60.657963 84.826759 113.804405 328.732849
[Rope2_Seg01]
47 0.000076 0.000111 0.000153 99.849098 88.294060 -146.393738 0.000204
48 0.000076 0.000112 0.000153 75.421555 88.355507 -170.954559 0.000204
[Rope2_Seg02]
47 139.999741 -0.000060 -0.000119 -2.909983 8.784331 5.213365 139.999756
48 139.999741 -0.000060 -0.000119 -2.823243 8.889290 5.205314 139.999756
[Rope2_Seg03]
47 140.000107 0.000030 0.000000 -6.190767 12.527912 8.894184 140.000107
48 140.000107 0.000030 0.000000 -6.144917 12.831610 8.977909 140.000107
[Rope2_Seg04]
47 139.999802 0.000000 -0.000060 -9.527154 12.559767 11.236159 139.999802
48 139.999802 0.000000 -0.000060 -9.609566 12.908865 11.368149 139.999802
[Rope2_Seg05]
47 139.999985 -0.000060 0.000119 2.561522 -0.426369 -3.507571 139.999985
48 139.999985 -0.000060 0.000119 2.471994 -0.370045 -3.415218 139.999985
[Rope2_Seg06]
47 139.999893 -0.000030 -0.000119 1.391325 -0.282134 -1.886302 139.999893
48 139.999893 -0.000030 -0.000119 1.247986 -0.185260 -1.731534 139.999893
[Rope2_Seg07]
47 139.999893 0.000060 -0.000060 0.203933 0.307529 -0.494843 139.999893
48 139.999893 0.000060 -0.000060 0.140464 0.354982 -0.428187 139.999893
[Rope2_Seg09]
47 121.338966 0.000089 -0.000060 33.793236 -1.359788 -0.847141 121.338966
48 121.338966 0.000089 -0.000060 33.793236 -1.359788 -0.847141 121.338966
[R_mid_hand01]
47 104.680779 11.144459 -10.335981 -41.523792 25.424656 28.595957 105.778534
48 104.680779 11.144459 -10.335981 -41.523792 25.424656 28.595957 105.778534
[R_mid_hand02]
47 104.070427 2.443552 8.231699 72.847389 -32.746803 10.013901 104.424065
48 104.070427 2.443552 8.231699 72.847389 -32.746803 10.013901 104.424065
[R_mid_hand03]
47 106.028137 -11.221827 -5.996406 -167.901306 10.259192 -37.009720 106.788818
48 106.028137 -11.221827 -5.996406 -167.901306 10.259192 -37.009720 106.788818
[spine02]
47 129.756927 0.001550 0.000119 -0.245322 -4.052060 -4.355547 129.756927
48 129.756927 0.001550 0.000119 -0.245322 -4.052060 -4.355547 129.756927
[spine03]
47 78.613846 0.087372 -4.898873 0.207412 -2.089717 -0.432471 78.766380
48 78.613846 0.087372 -4.898873 0.207411 -2.089716 -0.432471 78.766380
[pelvis]
47 169.435242 0.051022 0.000000 -0.010007 -0.191417 -1.897554 169.435257
48 169.435242 0.051022 0.000000 -0.010007 -0.191417 -1.897554 169.435257
[null_rope03_connect]
47 -1.257226 -2.466202 137.391083 138.134109 -71.813644 -81.622780 137.418976
48 -1.257226 -2.466202 137.391083 138.109482 -71.877739 -82.185379 137.418976
[null_rope04_connect]
47 -1.259640 -2.480268 -137.844437 138.134109 -71.813644 -81.622780 137.872513
48 -1.259640 -2.480268 -137.844437 138.109482 -71.877739 -82.185379 137.872513
[Rope3_Seg01]
47 0.000000 0.000000 0.000000 -172.181961 75.207397 -107.784630 0.000000
48 0.000000 0.000000 0.000000 -175.403717 75.761131 -110.741821 0.000000
[Rope3_Seg02]
47 139.999924 -0.000119 0.000060 4.065335 8.951218 -4.373890 139.999924
48 139.999924 -0.000119 0.000060 4.211387 9.135044 -4.223948 139.999924
[Rope3_Seg03]
47 139.999924 -0.000119 0.000119 6.964418 15.506673 -7.417005 139.999924
48 139.999924 -0.000119 0.000119 7.250658 15.628084 -7.212059 139.999924
[Rope3_Seg04]
47 139.999924 0.000119 0.000000 7.107868 15.490900 -11.038881 139.999924
48 139.999924 0.000119 0.000000 7.770950 16.374218 -11.216808 139.999924
[Rope3_Seg05]
47 139.999924 -0.000238 0.000060 -7.338191 -20.671703 4.500541 139.999924
48 139.999924 -0.000238 0.000060 -7.050810 -19.616673 3.681148 139.999924
[Rope3_Seg06]
47 139.999893 -0.000119 -0.000060 -2.119648 -13.222514 1.547086 139.999893
48 139.999893 -0.000119 -0.000060 -2.264188 -13.179878 1.338876 139.999893
[Rope3_Seg07]
47 139.999771 0.000060 -0.000119 -0.067962 -6.163636 0.005322 139.999771
48 139.999771 0.000060 -0.000119 -0.118254 -6.129147 -0.165351 139.999771
[Rope3_Seg08]
47 139.999985 -0.000060 0.000000 0.345766 -3.589494 -0.006699 139.999985
48 139.999985 -0.000060 0.000000 0.316609 -3.599123 -0.102303 139.999985
[Rope3_Seg09]
47 90.185997 -0.000179 -0.000060 89.793228 -1.359877 -0.847183 90.185997
48 90.185997 -0.000179 -0.000060 89.793228 -1.359877 -0.847183 90.185997
[R_rear_hand01]
47 103.366196 -6.073594 -10.757982 -161.551193 16.666374 -30.088671 104.101845
48 103.366196 -6.073594 -10.757982 -161.551193 16.666374 -30.088671 104.101845
[R_rear_hand02]
47 100.509819 12.039542 -7.992327 -34.280552 19.289745 28.875523 101.543350
48 100.509819 12.039542 -7.992327 -34.280552 19.289745 28.875523 101.543350
[R_rear_hand03]
47 101.539970 5.215704 5.435467 83.366440 -30.933914 7.284830 101.819031
48 101.539970 5.215704 5.435467 83.366440 -30.933914 7.284830 101.819031
[Rope4_Seg01]
47 0.000010 0.000038 -0.000114 13.303036 58.249287 -150.249146 0.000121
48 0.000010 0.000038 -0.000114 11.373749 58.146549 -152.379959 0.000121
[Rope4_Seg02]
47 139.999985 0.000060 0.000119 0.823467 3.965070 9.234886 139.999985
48 139.999985 0.000060 0.000119 0.954429 3.385824 9.699874 139.999985
[Rope4_Seg03]
47 139.999924 0.000000 -0.000238 -0.285590 4.334762 13.548746 139.999924
48 139.999924 0.000000 -0.000238 -0.199908 3.576784 14.392667 139.999924
[Rope4_Seg04]
47 139.999985 0.000000 0.000119 -1.287527 5.031262 10.341105 139.999985
48 139.999985 0.000000 0.000119 -1.397448 4.511724 11.419811 139.999985
[Rope4_Seg05]
47 139.999802 -0.000060 -0.000119 2.894235 5.732245 -6.827219 139.999802
48 139.999802 -0.000060 -0.000119 2.888610 6.590852 -7.185945 139.999802
[Rope4_Seg06]
47 139.999924 0.000000 0.000060 1.860986 3.468656 -3.500599 139.999924
48 139.999924 0.000000 0.000060 1.986706 3.984218 -3.859834 139.999924
[Rope4_Seg07]
47 139.999802 0.000000 0.000000 1.291069 2.454990 -1.937265 139.999802
48 139.999802 0.000000 0.000000 1.385838 2.753202 -2.112363 139.999802
[Rope4_Seg08]
47 139.999924 0.000000 0.000119 -0.767737 1.319886 -1.095345 139.999924
48 139.999924 0.000000 0.000119 -0.713603 1.478110 -1.189707 139.999924
[Rope4_Seg09]
47 90.185791 0.000060 0.000060 -135.617828 2.228885 0.850567 90.185791
48 90.185791 0.000060 0.000060 -135.617828 2.228885 0.850567 90.185791
[L_rear_hand01]
47 101.696655 -8.392275 -7.654577 -34.454281 -18.946800 151.655121 102.329041
48 101.696655 -8.392275 -7.654577 -34.454281 -18.946800 151.655121 102.329041
[L_rear_hand02]
47 102.726799 -1.568258 5.773216 83.407906 30.330435 172.796509 102.900848
48 102.726799 -1.568258 5.773216 83.407906 30.330435 172.796509 102.900848
[L_rear_hand03]
47 104.552910 9.721220 -10.420293 -161.379868 -16.473232 -150.512238 105.519653
48 104.552910 9.721220 -10.420293 -161.379868 -16.473232 -150.512238 105.519653
